<?xml version="1.0" standalone="no"?>
<!DOCTYPE svg PUBLIC "-//W3C//DTD SVG 20010904//EN"
 "http://www.w3.org/TR/2001/REC-SVG-20010904/DTD/svg10.dtd">
<svg version="1.0" xmlns="http://www.w3.org/2000/svg"
 width="256.000000pt" height="256.000000pt" viewBox="0 0 256.000000 256.000000"
 preserveAspectRatio="xMidYMid meet">

<g transform="translate(0.000000,256.000000) scale(0.100000,-0.100000)"
fill="#000000" stroke="none">
<path d="M920 2467 c-46 -15 -133 -102 -146 -147 -9 -33 -13 -35 -62 -42 -125
-18 -212 -105 -230 -229 -7 -52 -7 -52 -56 -66 -72 -21 -149 -101 -172 -178
-18 -65 -15 -146 9 -194 l15 -30 -53 -35 c-191 -127 -191 -405 0 -532 l53 -35
-15 -30 c-24 -48 -27 -129 -9 -194 23 -77 100 -157 172 -178 49 -14 49 -14 56
-66 18 -124 105 -211 230 -229 49 -7 53 -9 62 -42 6 -20 32 -57 61 -85 70 -71
145 -91 239 -63 55 16 138 99 154 154 17 60 17 2008 0 2068 -16 55 -99 138
-154 154 -49 14 -106 14 -154 -1z m168 -94 c14 -10 35 -32 46 -47 20 -26 21
-43 24 -297 l3 -269 -101 0 -100 0 0 60 c0 56 2 62 38 94 33 31 37 39 37 85 0
44 -4 55 -33 83 -28 28 -39 33 -82 33 -43 0 -54 -5 -82 -33 -29 -28 -33 -39
-33 -83 0 -46 4 -54 38 -85 35 -32 37 -38 37 -94 l0 -60 -100 0 -100 0 -34 38
c-31 33 -39 37 -85 37 -44 0 -55 -4 -83 -33 -28 -28 -33 -39 -33 -82 0 -43 5
-54 33 -82 28 -29 39 -33 83 -33 46 0 54 4 85 38 l34 37 240 0 240 0 0 -100 0
-100 -288 0 c-211 0 -291 -3 -300 -12 -8 -8 -12 -54 -12 -140 l0 -128 -37 -34
c-34 -31 -38 -39 -38 -85 0 -44 4 -55 33 -83 28 -28 39 -33 82 -33 43 0 54 5
82 33 29 28 33 39 33 83 0 46 -4 54 -37 85 l-38 34 0 100 0 100 260 0 260 0 0
-100 0 -100 -168 0 c-117 0 -172 -4 -180 -12 -8 -8 -12 -58 -12 -160 l0 -148
-37 -34 c-35 -31 -38 -39 -38 -86 0 -47 3 -55 38 -86 36 -33 37 -36 37 -102 0
-40 5 -73 12 -80 8 -8 63 -12 181 -12 l169 0 -4 -109 c-3 -118 -12 -141 -72
-185 -39 -29 -133 -29 -172 0 -43 32 -65 67 -71 115 -8 63 -17 70 -73 63 -125
-17 -223 80 -206 205 8 58 0 66 -68 75 -62 8 -110 38 -144 89 -22 34 -27 52
-27 106 0 58 4 73 34 119 39 61 34 74 -33 94 -86 26 -166 135 -166 228 0 93
80 202 166 228 67 20 72 33 33 94 -30 46 -34 61 -34 119 0 59 4 73 30 110 34
48 86 78 147 86 62 8 69 17 62 73 -16 124 81 223 202 206 55 -7 74 4 74 45 0
60 39 119 95 145 40 19 119 12 153 -13z m-138 -348 c26 -32 -13 -81 -47 -59
-35 22 -23 74 17 74 10 0 23 -7 30 -15z m-360 -280 c26 -32 -13 -81 -47 -59
-35 22 -23 74 17 74 10 0 23 -7 30 -15z m40 -640 c26 -32 -13 -81 -47 -59 -35
22 -23 74 17 74 10 0 23 -7 30 -15z m530 -265 l0 -280 -140 0 -140 0 0 40 c0
33 6 45 38 74 34 31 37 39 37 86 0 47 -3 55 -37 86 l-38 34 0 120 0 120 140 0
140 0 0 -280z m-290 -55 c26 -32 -13 -81 -47 -59 -35 22 -23 74 17 74 10 0 23
-7 30 -15z"/>
<path d="M240 1280 l0 -40 40 0 40 0 0 40 0 40 -40 0 -40 0 0 -40z"/>
<path d="M480 800 l0 -40 40 0 40 0 0 40 0 40 -40 0 -40 0 0 -40z"/>
<path d="M1480 2467 c-49 -16 -133 -102 -148 -153 -17 -60 -17 -2008 0 -2068
16 -55 99 -138 154 -154 94 -28 169 -8 239 63 29 28 55 65 61 85 9 33 13 35
62 42 125 18 212 105 230 229 7 52 7 52 56 66 72 21 149 101 172 178 18 65 15
146 -9 194 l-15 30 53 35 c191 127 191 405 0 532 l-53 35 15 30 c24 48 27 129
9 194 -23 77 -100 157 -172 178 -49 14 -49 14 -56 66 -18 124 -105 211 -230
229 -49 7 -53 9 -62 42 -14 48 -100 133 -152 148 -49 14 -106 14 -154 -1z
m168 -94 c41 -31 63 -66 69 -114 8 -63 17 -70 74 -63 125 17 222 -81 205 -206
-8 -57 0 -65 69 -74 60 -8 115 -42 146 -93 19 -30 24 -52 24 -103 0 -57 -4
-72 -34 -118 -39 -61 -34 -74 33 -94 86 -26 166 -135 166 -228 0 -93 -80 -202
-166 -228 -67 -20 -72 -33 -33 -94 30 -46 34 -61 34 -119 0 -59 -4 -73 -30
-110 -34 -48 -86 -78 -147 -86 -62 -8 -69 -17 -62 -74 17 -125 -81 -222 -206
-205 -56 7 -65 0 -73 -63 -6 -48 -28 -83 -71 -115 -20 -16 -42 -21 -86 -21
-63 0 -95 16 -134 69 -20 27 -21 41 -24 457 l-3 429 81 0 80 0 0 -220 0 -220
-37 -34 c-34 -31 -38 -39 -38 -85 0 -44 4 -55 33 -83 28 -28 39 -33 82 -33 43
0 54 5 82 33 29 28 33 39 33 83 0 46 -4 54 -37 85 l-38 34 0 220 0 220 160 0
160 0 0 -80 c0 -79 0 -80 -37 -114 -34 -31 -38 -39 -38 -85 0 -44 4 -55 33
-83 28 -28 39 -33 82 -33 43 0 54 5 82 33 29 28 33 39 33 83 0 46 -4 54 -37
85 l-38 34 0 108 c0 71 -4 112 -12 120 -9 9 -94 12 -320 12 l-308 0 0 100 0
100 240 0 240 0 34 -37 c31 -34 39 -38 85 -38 44 0 55 4 83 33 28 28 33 39 33
82 0 43 -5 54 -33 82 -28 29 -39 33 -83 33 -46 0 -54 -4 -85 -37 l-34 -38
-240 0 -240 0 0 100 0 100 188 0 c133 0 192 4 200 12 8 8 12 45 12 100 l0 88
38 34 c33 31 37 39 37 85 0 44 -4 55 -33 83 -28 28 -39 33 -82 33 -43 0 -54
-5 -82 -33 -29 -28 -33 -39 -33 -83 0 -46 4 -54 38 -85 35 -32 37 -38 37 -94
l0 -60 -160 0 -160 0 0 254 c0 156 4 266 11 283 14 37 47 72 84 89 40 19 119
12 153 -13z m142 -348 c26 -32 -13 -81 -47 -59 -35 22 -23 74 17 74 10 0 23
-7 30 -15z m240 -560 c26 -32 -13 -81 -47 -59 -35 22 -23 74 17 74 10 0 23 -7
30 -15z m0 -600 c26 -32 -13 -81 -47 -59 -35 22 -23 74 17 74 10 0 23 -7 30
-15z m-400 -280 c15 -18 10 -45 -12 -59 -35 -22 -74 27 -48 59 16 19 44 19 60
0z"/>
<path d="M1880 1720 l0 -40 40 0 40 0 0 40 0 40 -40 0 -40 0 0 -40z"/>
<path d="M2200 1280 l0 -40 40 0 40 0 0 40 0 40 -40 0 -40 0 0 -40z"/>
</g>
</svg>
