<?xml version="1.0" standalone="no"?>
<!DOCTYPE svg PUBLIC "-//W3C//DTD SVG 20010904//EN"
 "http://www.w3.org/TR/2001/REC-SVG-20010904/DTD/svg10.dtd">
<svg version="1.0" xmlns="http://www.w3.org/2000/svg"
 width="820.000000pt" height="512.000000pt" viewBox="0 0 820.000000 512.000000"
 preserveAspectRatio="xMidYMid meet">

<g transform="translate(0.000000,512.000000) scale(0.100000,-0.100000)"
fill="#000000" stroke="none">
<path d="M3780 5109 c-738 -55 -1357 -277 -1642 -589 -74 -81 -120 -154 -157
-248 l-26 -67 0 -1595 0 -1595 23 -60 c77 -203 252 -376 522 -518 850 -446
2366 -444 3210 5 263 139 436 313 512 513 l23 60 0 1595 0 1595 -26 67 c-42
107 -87 175 -184 273 -162 164 -392 291 -720 399 -425 139 -1025 203 -1535
165z m545 -204 c542 -18 1085 -163 1410 -376 114 -75 228 -193 268 -277 29
-60 32 -77 32 -157 0 -76 -4 -99 -26 -145 -123 -262 -574 -499 -1149 -604
-286 -52 -391 -60 -760 -61 -276 0 -373 4 -485 18 -419 55 -709 134 -980 267
-228 113 -379 242 -444 380 -22 46 -26 69 -26 145 0 82 3 97 32 155 174 354
875 624 1709 659 98 4 197 6 219 5 22 -2 112 -6 200 -9z m1716 -1842 c-13
-122 -51 -196 -154 -298 -97 -97 -171 -146 -332 -225 -253 -124 -584 -214
-940 -256 -391 -46 -849 -36 -1218 27 -644 110 -1116 363 -1222 654 -16 43
-19 93 -23 363 -2 171 -1 312 2 312 4 0 35 -23 69 -52 520 -434 1630 -625
2630 -453 479 83 904 257 1142 468 l50 45 3 -252 c1 -138 -2 -288 -7 -333z
m-3855 -464 c27 -30 158 -128 229 -171 297 -178 734 -304 1250 -360 159 -17
711 -17 870 0 515 56 949 181 1250 360 69 41 201 140 229 171 11 11 23 21 28
21 10 0 10 -502 -1 -598 -23 -194 -197 -372 -508 -518 -250 -118 -584 -204
-968 -250 -212 -26 -718 -26 -930 0 -297 35 -524 85 -760 166 -360 124 -619
314 -697 510 -20 51 -22 76 -26 373 -3 198 -1 317 5 317 6 0 18 -10 29 -21z
m47 -1066 c146 -128 388 -250 677 -341 706 -223 1690 -221 2395 5 323 104 482
189 716 382 l29 24 0 -229 c0 -126 -4 -256 -10 -288 -30 -182 -189 -345 -475
-486 -270 -133 -563 -213 -980 -267 -219 -28 -780 -25 -1005 5 -743 101 -1278
356 -1401 669 -21 54 -23 76 -27 328 -5 305 -14 282 81 198z"/>
</g>
</svg>
