<?xml version="1.0" standalone="no"?>
<!DOCTYPE svg PUBLIC "-//W3C//DTD SVG 20010904//EN"
 "http://www.w3.org/TR/2001/REC-SVG-20010904/DTD/svg10.dtd">
<svg version="1.0" xmlns="http://www.w3.org/2000/svg"
 width="512.000000pt" height="512.000000pt" viewBox="0 0 512.000000 512.000000"
 preserveAspectRatio="xMidYMid meet">

<g transform="translate(0.000000,512.000000) scale(0.100000,-0.100000)"
fill="#000000" stroke="none">
<path d="M982 4924 l-22 -15 0 -839 0 -838 -42 -7 c-123 -19 -204 -60 -272
-136 -88 -97 -124 -212 -133 -414 -11 -273 59 -518 215 -755 105 -158 251
-282 375 -318 56 -16 60 -20 87 -72 102 -199 267 -367 464 -472 l71 -37 -711
-1 -710 0 -26 -27 c-57 -61 -278 -364 -278 -381 0 -11 9 -27 21 -38 21 -19 72
-19 2038 -24 l2016 -5 243 -182 c133 -101 247 -183 253 -183 32 0 58 39 150
222 70 139 99 207 95 223 -3 13 -71 71 -176 151 -160 121 -169 130 -151 144
126 100 622 537 626 551 9 29 -3 55 -31 67 -31 15 -531 17 -567 3 -14 -6 -176
-125 -360 -266 l-336 -255 -398 2 -398 3 55 29 c205 106 385 290 481 488 19
39 28 47 58 53 74 14 173 77 267 170 164 161 268 359 324 610 29 130 31 362 5
475 -48 211 -173 338 -363 371 l-62 11 0 823 c0 492 -4 834 -9 848 -11 27 -41
42 -68 33 -10 -3 -139 -161 -287 -351 l-269 -345 -786 2 -786 3 -257 330
c-141 182 -267 338 -279 348 -26 21 -38 21 -67 1z m323 -507 l220 -282 841 -3
c662 -2 843 1 856 10 9 7 112 137 229 288 l214 275 5 -776 c4 -605 8 -779 18
-791 8 -10 39 -18 85 -23 177 -17 268 -87 318 -244 29 -93 37 -303 16 -426
-51 -292 -210 -561 -406 -689 -30 -20 -56 -34 -58 -32 -2 1 5 27 16 57 31 90
69 266 91 418 23 160 43 562 29 598 -17 45 -94 38 -103 -10 -3 -12 -7 -103
-10 -202 -24 -761 -229 -1219 -636 -1425 -187 -94 -371 -131 -650 -132 -562
-1 -899 176 -1097 577 -116 235 -184 536 -198 885 -10 249 -16 309 -32 325
-20 21 -57 19 -78 -5 -17 -18 -17 -35 -11 -207 12 -316 47 -567 110 -783 14
-46 23 -86 21 -88 -9 -10 -96 51 -150 105 -137 137 -224 292 -285 508 -18 63
-24 114 -28 240 -4 169 3 234 37 326 45 120 130 180 280 201 52 6 100 18 107
26 12 11 14 145 14 794 0 430 3 778 8 774 4 -4 106 -134 227 -289z m3585
-3001 c-8 -8 -136 -118 -285 -245 -148 -128 -274 -241 -279 -252 -6 -13 -5
-27 3 -42 7 -12 91 -80 187 -152 96 -71 174 -131 174 -132 0 -9 -131 -263
-135 -263 -3 0 -107 77 -232 170 l-226 170 -618 0 -617 0 14 47 c8 25 14 79
14 120 l0 73 488 0 488 0 340 259 339 260 180 0 c153 1 177 -1 165 -13z
m-3027 -603 c2 -54 7 -108 11 -120 l8 -23 -852 0 c-468 0 -850 3 -848 8 2 4
41 58 88 120 l85 112 752 0 752 0 4 -97z m327 22 c0 -87 -16 -127 -60 -150
-37 -19 -63 -19 -101 1 -41 21 -59 68 -59 154 l0 70 110 0 110 0 0 -75z m250
-7 c1 -46 7 -100 14 -120 l14 -38 -95 0 c-87 0 -94 2 -88 18 14 33 24 98 25
160 l0 62 65 0 65 0 0 -82z m330 -2 c0 -76 -3 -88 -26 -115 -32 -38 -80 -49
-126 -27 -46 22 -58 46 -65 126 -9 102 -11 100 112 100 l105 0 0 -84z"/>
<path d="M1570 3727 c-396 -136 -462 -659 -112 -884 179 -115 394 -105 569 27
l52 40 39 -68 c22 -37 74 -128 117 -202 43 -74 87 -145 98 -157 24 -27 58 -30
79 -5 9 9 68 109 133 222 65 113 119 207 121 209 2 2 21 -12 44 -32 80 -68
213 -117 319 -117 19 0 64 7 100 16 191 48 332 188 376 376 19 81 19 139 0
213 -59 231 -252 385 -483 385 -284 0 -508 -239 -490 -522 5 -72 15 -111 53
-200 7 -17 -7 -18 -213 -18 l-221 0 24 53 c82 182 41 399 -105 544 -128 128
-334 177 -500 120z m296 -118 c77 -29 163 -111 200 -191 36 -80 44 -186 20
-268 -66 -222 -322 -334 -530 -231 -149 73 -234 238 -206 399 42 243 282 378
516 291z m1300 0 c77 -29 163 -111 200 -191 36 -79 44 -189 20 -270 -33 -113
-141 -220 -259 -255 -114 -34 -261 -1 -352 78 -230 202 -139 578 160 655 63
17 159 10 231 -17z m-646 -715 c0 -12 -141 -254 -148 -254 -8 1 -142 236 -142
250 0 6 55 10 145 10 80 0 145 -3 145 -6z"/>
<path d="M1690 3450 c-107 -19 -165 -95 -158 -206 5 -76 38 -125 109 -162 151
-79 326 81 265 242 -15 39 -83 116 -104 116 -4 0 -23 4 -42 8 -19 5 -51 5 -70
2z m84 -131 c54 -43 21 -139 -49 -139 -109 0 -109 156 1 159 12 1 33 -8 48
-20z"/>
<path d="M2988 3450 c-57 -10 -113 -52 -138 -105 -32 -66 -25 -150 16 -202 46
-58 107 -86 173 -79 174 16 241 222 110 340 -21 20 -42 36 -47 36 -4 0 -23 4
-42 8 -19 5 -52 5 -72 2z m86 -131 c56 -44 22 -139 -49 -139 -109 0 -108 156
1 159 12 1 33 -8 48 -20z"/>
<path d="M1421 2174 c-21 -15 -23 -22 -18 -75 6 -74 44 -155 97 -213 42 -45
146 -106 182 -106 19 0 23 -8 54 -94 22 -61 114 -158 176 -186 144 -63 309
-32 416 79 l45 46 56 -56 c69 -69 143 -100 241 -100 79 0 110 6 173 38 88 44
168 145 186 235 5 26 14 33 62 48 133 41 226 148 248 287 9 58 2 88 -23 105
-34 23 -86 -13 -86 -60 0 -49 -30 -119 -67 -157 -79 -81 -191 -99 -292 -48
-64 32 -116 100 -126 161 -11 69 -15 81 -31 96 -38 39 -83 9 -95 -62 -28 -177
-189 -270 -348 -201 -81 34 -128 103 -146 211 -7 43 -28 68 -56 68 -30 0 -59
-36 -59 -72 0 -80 -85 -192 -165 -218 -63 -21 -165 -8 -216 26 -59 40 -98 101
-109 170 -14 87 -48 113 -99 78z m683 -280 c36 -45 108 -92 164 -106 37 -9 42
-13 36 -32 -22 -72 -98 -146 -169 -166 -63 -18 -139 -7 -194 28 -69 42 -142
162 -98 162 31 0 137 62 177 103 25 26 47 47 50 47 3 0 18 -16 34 -36z m608 2
c35 -44 112 -94 166 -108 48 -12 49 -20 7 -94 -63 -109 -222 -146 -334 -77
-48 30 -96 90 -106 134 -6 23 -2 27 37 38 55 17 137 71 166 110 12 17 26 31
30 31 4 0 19 -15 34 -34z"/>
</g>
</svg>
