<?xml version="1.0" standalone="no"?>
<!DOCTYPE svg PUBLIC "-//W3C//DTD SVG 20010904//EN"
 "http://www.w3.org/TR/2001/REC-SVG-20010904/DTD/svg10.dtd">
<svg version="1.0" xmlns="http://www.w3.org/2000/svg"
 width="512.000000pt" height="512.000000pt" viewBox="0 0 512.000000 512.000000"
 preserveAspectRatio="xMidYMid meet">

<g transform="translate(0.000000,512.000000) scale(0.100000,-0.100000)"
fill="#000000" stroke="none">
<path d="M1330 4835 c-360 -100 -590 -457 -514 -798 57 -257 275 -476 530
-533 86 -19 238 -15 308 8 35 11 40 10 52 -7 8 -11 84 -139 169 -286 l155
-266 -45 -49 c-24 -27 -59 -76 -77 -110 l-33 -60 -465 126 -465 127 -15 59
c-34 128 -120 233 -238 291 -50 24 -69 28 -147 28 -77 0 -98 -4 -148 -27 -80
-38 -170 -126 -210 -207 -29 -59 -32 -74 -32 -156 0 -78 4 -97 28 -147 44 -89
116 -161 205 -205 69 -35 83 -38 156 -38 111 0 193 38 282 131 l64 65 427
-116 c236 -64 451 -123 479 -131 l50 -14 12 -58 c7 -31 23 -80 36 -109 l25
-52 -320 -180 c-175 -100 -321 -181 -324 -181 -2 0 -24 21 -47 46 -120 130
-327 224 -493 224 -69 0 -191 -28 -263 -61 -277 -125 -451 -420 -413 -698 38
-269 221 -487 486 -577 113 -38 263 -38 380 -1 246 80 430 285 481 537 18 92
15 185 -10 280 -11 42 -12 58 -3 66 7 6 161 95 344 198 l331 187 40 -26 c67
-44 141 -67 234 -73 69 -4 89 -8 93 -21 2 -9 67 -244 144 -524 l139 -507 -57
-58 c-32 -32 -70 -83 -87 -117 -25 -53 -29 -71 -29 -150 0 -81 3 -97 32 -158
40 -83 115 -160 198 -202 54 -27 70 -30 155 -30 82 0 103 4 152 27 162 76 268
258 240 411 -32 173 -168 308 -339 338 -43 8 -64 16 -68 28 -3 9 -68 246 -145
526 l-139 509 22 15 c55 38 126 116 161 176 l39 65 428 0 429 0 6 -27 c33
-151 127 -300 252 -399 67 -53 194 -116 272 -135 92 -23 241 -16 335 14 316
103 531 428 485 733 -40 266 -229 487 -487 571 -91 30 -242 36 -333 14 -250
-61 -469 -283 -524 -533 l-6 -28 -408 0 -408 0 -13 63 c-7 34 -15 73 -18 87
-3 22 45 74 374 402 l378 378 64 -26 c56 -23 76 -26 146 -22 104 5 178 39 256
117 172 172 156 419 -38 577 -159 129 -364 113 -511 -40 -66 -69 -97 -127
-113 -209 -12 -67 0 -145 30 -205 l20 -38 -368 -368 -369 -368 -51 40 c-62 49
-142 88 -212 103 -50 11 -193 7 -234 -6 -17 -5 -40 29 -182 274 -90 153 -163
282 -163 285 0 3 23 27 51 53 144 134 220 305 220 493 0 116 -18 189 -73 300
-34 67 -61 103 -128 170 -146 146 -269 201 -460 207 -81 2 -131 -2 -170 -12z
m325 -226 c263 -98 373 -406 239 -670 -133 -264 -533 -319 -749 -104 -86 87
-127 194 -128 335 0 228 123 395 333 453 87 23 222 17 305 -14z m2262 -605
c15 -11 38 -40 51 -64 47 -92 16 -205 -68 -248 -37 -20 -56 -23 -109 -19 -105
8 -153 58 -159 167 -5 86 20 139 82 170 54 28 162 24 203 -6z m-3275 -871 c65
-38 93 -111 77 -201 -11 -59 -35 -92 -83 -115 -46 -24 -141 -25 -184 -3 -131
68 -113 296 27 335 48 13 126 6 163 -16z m3951 -235 c167 -80 257 -227 257
-423 0 -139 -45 -253 -134 -340 -91 -88 -189 -124 -338 -125 -272 -1 -459 188
-460 464 -1 213 107 373 301 443 58 21 80 23 182 20 108 -3 120 -5 192 -39z
m-2086 -58 c61 -26 116 -83 146 -149 29 -64 29 -197 0 -262 -63 -140 -223
-209 -378 -164 -147 42 -223 157 -213 319 9 143 89 242 223 277 54 14 166 4
222 -21z m-1587 -878 c154 -61 261 -204 279 -372 24 -235 -85 -426 -284 -502
-51 -20 -79 -23 -185 -23 -124 0 -126 0 -202 37 -168 80 -258 227 -258 423 1
96 12 150 47 222 52 106 133 177 252 220 58 21 80 23 181 20 88 -3 128 -9 170
-25z m2114 -1145 c54 -31 76 -76 76 -158 0 -107 -53 -167 -157 -176 -108 -10
-182 42 -198 139 -15 85 21 168 85 200 51 26 145 24 194 -5z"/>
</g>
</svg>
